<svg xmlns="http://www.w3.org/2000/svg" version="1.1" xmlns:xlink="http://www.w3.org/1999/xlink" xmlns:svgjs="http://svgjs.dev/svgjs" width="1000" height="1000" viewBox="0 0 1000 1000"><rect width="1000" height="1000" fill="#2979ff"></rect><g transform="matrix(0.7,0,0,0.7,150.1260352835365,249.95264000211537)"><svg viewBox="0 0 345 247" data-background-color="#2979ff" preserveAspectRatio="xMidYMid meet" height="715" width="1000" xmlns="http://www.w3.org/2000/svg" xmlns:xlink="http://www.w3.org/1999/xlink"><g id="tight-bounds" transform="matrix(1,0,0,1,-0.06211717304924491,-0.09999584311188414)"><svg viewBox="0 0 345.1242333926461 247.2" height="247.2" width="345.1242333926461"><g><svg viewBox="0 0 395.5199999999999 283.29666404145155" height="247.2" width="345.1242333926461"><g transform="matrix(1,0,0,1,0,163.66010773019417)"><svg viewBox="0 0 395.5199999999999 119.63655631125738" height="119.63655631125738" width="395.5199999999999"><g id="textblocktransform"><svg viewBox="0 0 395.5199999999999 119.63655631125738" height="119.63655631125738" width="395.5199999999999" id="textblock"><g><svg viewBox="0 0 395.5199999999999 88.52982225148122" height="88.52982225148122" width="395.5199999999999"><g transform="matrix(1,0,0,1,0,0)"><svg width="395.5199999999999" viewBox="5.400000095367432 -33.5 151.88999938964844 34" height="88.52982225148122" data-palette-color="#ffffff"><path d="M5.4-33L9.4-33 9.4 0 5.4 0 5.4-33ZM20.2-33L24.2-33 24.2 0 20.2 0 20.2-33ZM31.2-33L58.2-33 58.2-29.25 46.7-29.25 46.7 0 42.7 0 42.7-29.25 31.2-29.25 31.2-33ZM89.09 0L65.19 0 65.19-33 88.34-33 88.34-29.25 69.19-29.25 69.19-18.6 84.09-18.6 84.09-14.85 69.19-14.85 69.19-3.75 89.09-3.75 89.09 0ZM119.69-9.95L123.69-8.45Q122.64-5.65 120.69-3.63 118.74-1.6 116.12-0.55 113.49 0.5 110.39 0.5L110.39 0.5Q105.69 0.5 102.27-1.58 98.84-3.65 96.97-7.45 95.09-11.25 95.09-16.5L95.09-16.5Q95.09-21.75 96.97-25.55 98.84-29.35 102.27-31.43 105.69-33.5 110.29-33.5L110.29-33.5Q113.49-33.5 115.99-32.63 118.49-31.75 120.27-30.03 122.04-28.3 123.09-25.8L123.09-25.8 119.14-23.95Q118.04-26.8 115.97-28.28 113.89-29.75 110.59-29.75L110.59-29.75Q107.24-29.75 104.69-28.18 102.14-26.6 100.72-23.65 99.29-20.7 99.29-16.5L99.29-16.5Q99.29-12.35 100.64-9.38 101.99-6.4 104.49-4.83 106.99-3.25 110.39-3.25L110.39-3.25Q113.69-3.25 116.14-4.93 118.59-6.6 119.69-9.95L119.69-9.95ZM153.29-33L157.29-33 157.29 0 153.29 0 153.29-33ZM131.39-33L135.39-33 135.39 0 131.39 0 131.39-33ZM133.49-18.6L155.14-18.6 155.14-14.85 133.49-14.85 133.49-18.6Z" opacity="1" transform="matrix(1,0,0,1,0,0)" fill="#ffffff" class="wordmark-text-0" data-fill-palette-color="primary" id="text-0"></path></svg></g></svg></g><g transform="matrix(1,0,0,1,0,109.42958856932191)"><svg viewBox="0 0 395.5199999999999 10.206967741935483" height="10.206967741935483" width="395.5199999999999"><g transform="matrix(1,0,0,1,0,0)"><svg width="395.5199999999999" viewBox="6.25 -50 1937.4000244140625 50" height="10.206967741935483" data-palette-color="#ffffff"><path d="M43.75-6.25L6.25-6.25 6.25-12.5 18.75-12.5 18.75-43.75 6.25-43.75 6.25-50 43.75-50 43.75-43.75 31.25-43.75 31.25-12.5 43.75-12.5 43.75-6.25ZM62.5-6.25L50-6.25 50-37.5 87.5-37.5 87.5-31.25 93.75-31.25 93.75-6.25 81.25-6.25 81.25-31.25 62.5-31.25 62.5-6.25ZM112.5-6.25L100-6.25 100-37.5 137.5-37.5 137.5-31.25 143.75-31.25 143.75-6.25 131.25-6.25 131.25-31.25 112.5-31.25 112.5-6.25ZM187.49-6.25L156.24-6.25 156.24-12.5 149.99-12.5 149.99-31.25 156.24-31.25 156.24-37.5 187.49-37.5 187.49-31.25 193.74-31.25 193.74-12.5 187.49-12.5 187.49-6.25ZM162.49-31.25L162.49-12.5 181.24-12.5 181.24-31.25 162.49-31.25ZM231.24-6.25L218.74-6.25 218.74-12.5 212.49-12.5 212.49-18.75 206.24-18.75 206.24-37.5 218.74-37.5 218.74-18.75 231.24-18.75 231.24-37.5 243.74-37.5 243.74-18.75 237.49-18.75 237.49-12.5 231.24-12.5 231.24-6.25ZM293.74-6.25L256.24-6.25 256.24-12.5 249.99-12.5 249.99-18.75 256.24-18.75 256.24-25 281.24-25 281.24-31.25 256.24-31.25 256.24-37.5 287.49-37.5 287.49-31.25 293.74-31.25 293.74-6.25ZM262.49-18.75L262.49-12.5 281.24-12.5 281.24-18.75 262.49-18.75ZM331.24-6.25L318.74-6.25 318.74-31.25 306.24-31.25 306.24-37.5 318.74-37.5 318.74-50 331.24-50 331.24-37.5 343.74-37.5 343.74-31.25 331.24-31.25 331.24-6.25ZM381.23-43.75L368.73-43.75 368.73-50 381.23-50 381.23-43.75ZM393.73-6.25L356.23-6.25 356.23-12.5 368.73-12.5 368.73-31.25 362.48-31.25 362.48-37.5 381.23-37.5 381.23-12.5 393.73-12.5 393.73-6.25ZM431.23-6.25L418.73-6.25 418.73-12.5 412.48-12.5 412.48-18.75 406.23-18.75 406.23-37.5 418.73-37.5 418.73-18.75 431.23-18.75 431.23-37.5 443.73-37.5 443.73-18.75 437.48-18.75 437.48-12.5 431.23-12.5 431.23-6.25ZM487.48-6.25L456.23-6.25 456.23-12.5 449.98-12.5 449.98-31.25 456.23-31.25 456.23-37.5 487.48-37.5 487.48-31.25 493.73-31.25 493.73-18.75 462.48-18.75 462.48-12.5 487.48-12.5 487.48-6.25ZM462.48-31.25L462.48-25 481.23-25 481.23-31.25 462.48-31.25ZM581.22-25L581.22-18.75 587.47-18.75 587.47-12.5 593.72-12.5 593.72-6.25 556.22-6.25 556.22-12.5 549.97-12.5 549.97-25 556.22-25 556.22-31.25 549.97-31.25 549.97-43.75 556.22-43.75 556.22-50 574.97-50 574.97-43.75 581.22-43.75 581.22-31.25 574.97-31.25 574.97-25 581.22-25ZM562.47-43.75L562.47-31.25 568.72-31.25 568.72-43.75 562.47-43.75ZM574.97-12.5L574.97-18.75 568.72-18.75 568.72-25 562.47-25 562.47-12.5 574.97-12.5ZM587.47-25L593.72-25 593.72-18.75 587.47-18.75 587.47-25ZM693.72-6.25L656.22-6.25 656.22-12.5 668.72-12.5 668.72-43.75 656.22-43.75 656.22-50 693.72-50 693.72-43.75 681.22-43.75 681.22-12.5 693.72-12.5 693.72-6.25ZM712.46-6.25L699.96-6.25 699.96-37.5 737.46-37.5 737.46-31.25 743.71-31.25 743.71-6.25 731.21-6.25 731.21-31.25 712.46-31.25 712.46-6.25ZM787.46-6.25L749.96-6.25 749.96-12.5 781.21-12.5 781.21-18.75 756.21-18.75 756.21-25 749.96-25 749.96-31.25 756.21-31.25 756.21-37.5 787.46-37.5 787.46-31.25 762.46-31.25 762.46-25 787.46-25 787.46-18.75 793.71-18.75 793.71-12.5 787.46-12.5 787.46-6.25ZM812.46 0L799.96 0 799.96-37.5 837.46-37.5 837.46-31.25 843.71-31.25 843.71-18.75 837.46-18.75 837.46-12.5 812.46-12.5 812.46 0ZM812.46-31.25L812.46-18.75 831.21-18.75 831.21-31.25 812.46-31.25ZM881.21-43.75L868.71-43.75 868.71-50 881.21-50 881.21-43.75ZM893.71-6.25L856.21-6.25 856.21-12.5 868.71-12.5 868.71-31.25 862.46-31.25 862.46-37.5 881.21-37.5 881.21-12.5 893.71-12.5 893.71-6.25ZM918.7-37.5L918.7-31.25 924.95-31.25 924.95-25 918.7-25 918.7-6.25 906.2-6.25 906.2-37.5 918.7-37.5ZM924.95-37.5L943.7-37.5 943.7-31.25 924.95-31.25 924.95-37.5ZM993.7-6.25L956.2-6.25 956.2-12.5 949.95-12.5 949.95-18.75 956.2-18.75 956.2-25 981.2-25 981.2-31.25 956.2-31.25 956.2-37.5 987.45-37.5 987.45-31.25 993.7-31.25 993.7-6.25ZM962.45-18.75L962.45-12.5 981.2-12.5 981.2-18.75 962.45-18.75ZM1031.2-6.25L1018.7-6.25 1018.7-31.25 1006.2-31.25 1006.2-37.5 1018.7-37.5 1018.7-50 1031.2-50 1031.2-37.5 1043.7-37.5 1043.7-31.25 1031.2-31.25 1031.2-6.25ZM1081.2-43.75L1068.7-43.75 1068.7-50 1081.2-50 1081.2-43.75ZM1093.7-6.25L1056.2-6.25 1056.2-12.5 1068.7-12.5 1068.7-31.25 1062.45-31.25 1062.45-37.5 1081.2-37.5 1081.2-12.5 1093.7-12.5 1093.7-6.25ZM1137.44-6.25L1106.19-6.25 1106.19-12.5 1099.94-12.5 1099.94-31.25 1106.19-31.25 1106.19-37.5 1137.44-37.5 1137.44-31.25 1143.69-31.25 1143.69-12.5 1137.44-12.5 1137.44-6.25ZM1112.44-31.25L1112.44-12.5 1131.19-12.5 1131.19-31.25 1112.44-31.25ZM1162.44-6.25L1149.94-6.25 1149.94-37.5 1187.44-37.5 1187.44-31.25 1193.69-31.25 1193.69-6.25 1181.19-6.25 1181.19-31.25 1162.44-31.25 1162.44-6.25ZM1243.69-6.25L1206.19-6.25 1206.19-12.5 1199.94-12.5 1199.94-18.75 1206.19-18.75 1206.19-25 1231.19-25 1231.19-31.25 1206.19-31.25 1206.19-37.5 1237.44-37.5 1237.44-31.25 1243.69-31.25 1243.69-6.25ZM1212.44-18.75L1212.44-12.5 1231.19-12.5 1231.19-18.75 1212.44-18.75ZM1293.69-6.25L1256.19-6.25 1256.19-12.5 1268.69-12.5 1268.69-43.75 1262.44-43.75 1262.44-50 1281.19-50 1281.19-12.5 1293.69-12.5 1293.69-6.25ZM1381.18-6.25L1368.68-6.25 1368.68-43.75 1356.18-43.75 1356.18-50 1393.68-50 1393.68-43.75 1381.18-43.75 1381.18-6.25ZM1437.43-6.25L1406.18-6.25 1406.18-12.5 1399.93-12.5 1399.93-31.25 1406.18-31.25 1406.18-37.5 1437.43-37.5 1437.43-31.25 1443.68-31.25 1443.68-18.75 1412.43-18.75 1412.43-12.5 1437.43-12.5 1437.43-6.25ZM1412.43-31.25L1412.43-25 1431.18-25 1431.18-31.25 1412.43-31.25ZM1493.68-6.25L1456.18-6.25 1456.18-12.5 1449.93-12.5 1449.93-31.25 1456.18-31.25 1456.18-37.5 1493.68-37.5 1493.68-31.25 1462.43-31.25 1462.43-12.5 1493.68-12.5 1493.68-6.25ZM1512.42-6.25L1499.92-6.25 1499.92-50 1512.42-50 1512.42-37.5 1537.42-37.5 1537.42-31.25 1543.67-31.25 1543.67-6.25 1531.17-6.25 1531.17-31.25 1512.42-31.25 1512.42-6.25ZM1631.17-6.25L1618.67-6.25 1618.67-31.25 1606.17-31.25 1606.17-37.5 1618.67-37.5 1618.67-43.75 1624.92-43.75 1624.92-50 1643.67-50 1643.67-43.75 1631.17-43.75 1631.17-37.5 1643.67-37.5 1643.67-31.25 1631.17-31.25 1631.17-6.25ZM1687.42-6.25L1656.17-6.25 1656.17-12.5 1649.92-12.5 1649.92-31.25 1656.17-31.25 1656.17-37.5 1687.42-37.5 1687.42-31.25 1693.67-31.25 1693.67-12.5 1687.42-12.5 1687.42-6.25ZM1662.42-31.25L1662.42-12.5 1681.17-12.5 1681.17-31.25 1662.42-31.25ZM1718.66-37.5L1718.66-31.25 1724.91-31.25 1724.91-25 1718.66-25 1718.66-6.25 1706.16-6.25 1706.16-37.5 1718.66-37.5ZM1724.91-37.5L1743.66-37.5 1743.66-31.25 1724.91-31.25 1724.91-37.5ZM1843.66-6.25L1806.16-6.25 1806.16-12.5 1799.91-12.5 1799.91-18.75 1806.16-18.75 1806.16-25 1831.16-25 1831.16-31.25 1806.16-31.25 1806.16-37.5 1837.41-37.5 1837.41-31.25 1843.66-31.25 1843.66-6.25ZM1812.41-18.75L1812.41-12.5 1831.16-12.5 1831.16-18.75 1812.41-18.75ZM1893.66-6.25L1856.16-6.25 1856.16-12.5 1868.66-12.5 1868.66-43.75 1862.41-43.75 1862.41-50 1881.16-50 1881.16-12.5 1893.66-12.5 1893.66-6.25ZM1943.65-6.25L1906.15-6.25 1906.15-12.5 1918.65-12.5 1918.65-43.75 1912.4-43.75 1912.4-50 1931.15-50 1931.15-12.5 1943.65-12.5 1943.65-6.25Z" opacity="1" transform="matrix(1,0,0,1,0,0)" fill="#ffffff" class="slogan-text-1" data-fill-palette-color="secondary" id="text-1"></path></svg></g></svg></g></svg></g></svg></g><g transform="matrix(1,0,0,1,75.54431999999997,0)"><svg viewBox="0 0 244.43135999999998 142.76034141235348" height="142.76034141235348" width="244.43135999999998"><g><svg xmlns="http://www.w3.org/2000/svg" xmlns:xlink="http://www.w3.org/1999/xlink" version="1.1" x="8" y="0" viewBox="0 18.003889083862305 96 59.99610900878906" enable-background="new 0 0 96 96" xml:space="preserve" height="142.76034141235348" width="228.43135999999998" class="icon-icon-0" data-fill-palette-color="accent" id="icon-0"><path d="M28.416 76.572c-1.024 0-2.048-0.393-2.832-1.172L1.172 50.844C0.42 50.092 0 49.068 0 48c0-1.068 0.42-2.088 1.176-2.848l24.412-24.548c1.56-1.568 4.092-1.576 5.656 0.004 1.56 1.58 1.56 4.12-0.004 5.696L9.664 48l21.58 21.704c1.56 1.571 1.56 4.116 0 5.688C30.464 76.18 29.432 76.572 28.416 76.572L28.416 76.572z" fill="#ffffff" data-fill-palette-color="accent"></path><path d="M67.588 76.572c-1.023 0-2.052-0.393-2.828-1.18-1.568-1.572-1.568-4.117 0-5.697L86.344 48 64.76 26.304c-1.568-1.58-1.568-4.12 0-5.696 1.568-1.58 4.088-1.576 5.656-0.008l24.412 24.552C95.58 45.9 96 46.928 96 48c0 1.068-0.42 2.088-1.172 2.844L70.416 75.393C69.641 76.18 68.611 76.572 67.588 76.572L67.588 76.572z" fill="#ffffff" data-fill-palette-color="accent"></path><path d="M38.348 78c-0.476 0-0.964-0.084-1.436-0.264-2.06-0.805-3.092-3.133-2.296-5.213l19.868-51.947c0.795-2.076 3.107-3.096 5.168-2.304 2.06 0.796 3.088 3.124 2.296 5.204L42.072 75.424C41.476 77.016 39.952 78 38.348 78z" fill="#ffffff" data-fill-palette-color="accent"></path></svg></g></svg></g><g><rect width="50.34643669632305" height="7.983710733415141" y="133.77663067893835" x="319.97567999999995" fill="#ffffff" data-fill-palette-color="accent"></rect><rect width="50.34643669632305" height="7.983710733415141" y="133.77663067893835" x="25.197883303676917" fill="#ffffff" data-fill-palette-color="accent"></rect><rect width="50.34643669632305" height="7.983710733415141" y="117.80920921210806" x="319.97567999999995" fill="#ffffff" data-fill-palette-color="accent"></rect><rect width="50.34643669632305" height="7.983710733415141" y="117.80920921210806" x="25.197883303676917" fill="#ffffff" data-fill-palette-color="accent"></rect></g></svg></g><defs></defs></svg><rect width="345.1242333926461" height="247.2" fill="none" stroke="none" visibility="hidden"></rect></g></svg></g></svg>